<?xml version="1.0" encoding="utf-8"?>
<!-- Generator: Adobe Illustrator 21.0.0, SVG Export Plug-In . SVG Version: 6.00 Build 0)  -->
<svg version="1.1" xmlns="http://www.w3.org/2000/svg" xmlns:xlink="http://www.w3.org/1999/xlink" x="0px" y="0px"
	 viewBox="0 0 702 534" style="enable-background:new 0 0 702 534;" xml:space="preserve">
<style type="text/css">
	.st0{fill:#FFFFFF;}
</style>
<g id="trash">
	<g id="s">
	</g>
</g>
<g id="S">
	<g>
		<path class="st0" d="M129,101c0,0-1-15,8-24s26-10,26-10h76l21,21l-21,19h-58c0,0-4,0-8.3,4.3C169,115,169,119,169,119v175
			c0,0,0.5,13.5-11,25c-11,11-24.5,10.5-24.5,10.5H49V311v-21h68c0,0,5,0,8.6-3.6c3.9-3.9,3.4-8.4,3.4-8.4V101z"/>
	</g>
</g>
<g id="text">
	<g>
		<path class="st0" d="M49.5,451l17-2.9c2,7.8,9.9,11.6,23.5,11.6c6.2,0,11-1,14.3-3s5-4.5,5-7.4c0-2.1-0.8-4.1-2.3-5.9
			c-1.5-1.8-4.8-3.2-9.7-4.3l-18.6-3.9c-6.4-1.3-11-2.9-14.1-4.6c-3-1.7-5.5-4.1-7.3-7.2c-1.8-3.1-2.7-6.4-2.7-9.9
			c0-7,3.2-12.6,9.7-16.8c6.4-4.2,14.7-6.3,24.8-6.3c8.3,0,15.8,1.5,22.4,4.4c6.6,2.9,10.8,7.1,12.6,12.5l-16.6,3.3
			c-2.6-5.9-8.5-8.9-17.9-8.9c-5.5,0-9.6,0.9-12.5,2.8c-2.9,1.8-4.3,4.2-4.3,7c0,4.5,4.5,7.6,13.5,9.4l16.5,3.3c10,2,16.7,5,20.1,9
			c3.4,4,5.1,8.3,5.1,13.1c0,7.7-3.6,13.7-10.8,18.2c-7.2,4.4-16.5,6.6-27.9,6.6c-9.6,0-18.1-1.6-25.3-4.9
			C56.7,463,51.9,457.9,49.5,451z"/>
		<path class="st0" d="M174.7,459.7v10.2c-4.8,0.8-8.6,1.3-11.2,1.3c-4.4,0-8.1-0.7-11.2-2.1s-5.4-3.3-6.9-5.7
			c-1.4-2.4-2.2-6.2-2.2-11.2v-30h-9v-10.2h9.9l1.5-15.1l13.3-1v16.1h14.4v10.2h-14.4v28.3c0,3.6,0.8,6.1,2.5,7.4s4.7,2,9.3,2
			C171.9,459.8,173.3,459.7,174.7,459.7z"/>
		<path class="st0" d="M204.5,469.9h-16.2v-57.9H203v13.8c2.1-5.4,5-9.3,8.6-11.8c3.7-2.5,7.4-3.7,11.2-3.7c0.5,0,1.2,0,2.1,0.1
			v14.1c-8.3,0-13.7,2.1-16.4,6.4c-2.7,4.2-4,8.4-4,12.3V469.9z"/>
		<path class="st0" d="M263.9,471.1c-10.6,0-18.7-3.1-24.3-9.2c-5.6-6.2-8.4-13.2-8.4-21.2c0-8.6,3.1-15.7,9.3-21.4
			c6.2-5.7,14.4-8.5,24.5-8.5c9.6,0,17.5,2.8,23.7,8.3c6.2,5.5,9.3,12.8,9.3,21.6c0,9.1-3.2,16.5-9.6,22.1
			C281.9,468.3,273.7,471.1,263.9,471.1z M264.4,460.3c10.9,0,16.4-6.6,16.4-19.7c0-5.9-1.3-10.6-3.9-14c-2.6-3.4-6.6-5.1-12-5.1
			c-5.6,0-9.7,1.8-12.4,5.3c-2.7,3.5-4.1,8.2-4.1,14.1c0,6.3,1.4,11.1,4.3,14.5C255.5,458.6,259.5,460.3,264.4,460.3z"/>
		<path class="st0" d="M363.8,411.9l-28,66c-1.7,4.1-4,7.2-7,9.4c-3,2.2-7.1,3.4-12.6,3.4c-2.1,0-5.2-0.1-9.3-0.4v-10.4l7.8,0.1
			c3.4,0,5.9-0.5,7.6-1.3s2.9-2.5,3.9-4.8c0.9-2.3,1.4-3.6,1.4-4c0-0.2-0.5-1.4-1.5-3.6l-24.7-54.4h17l17.4,38.2l15-38.2H363.8z"/>
		<path class="st0" d="M492,391.6l-26,78.3h-18.3l-19.3-57.6l-17.6,57.6h-18l-26.5-78.3h18.6l18.8,57.1l17.5-57.1h17.7l19.3,57.1
			l18.4-57.1H492z"/>
		<path class="st0" d="M560.6,469.9h-15.4c-1.4-3.5-2.2-7.4-2.5-11.7c-4.3,8.6-12.4,12.9-24.3,12.9c-7.2,0-12.9-1.7-17.2-5.1
			c-4.3-3.4-6.5-7.6-6.5-12.8c0-13.3,14.5-20,43.5-20c1.1,0,2.7,0,4.6,0.1V429c0-6-5.1-9-15.2-9c-9.9,0-15.5,3-16.8,9l-13.8-1.7
			c0.8-4.8,3.8-8.8,9.2-11.9s13.2-4.7,23.5-4.7c5.5,0,10.1,0.4,13.6,1.1c3.5,0.7,6.5,2,8.9,3.8c2.4,1.8,4.1,3.7,5,5.8
			c0.9,2.1,1.4,5.6,1.4,10.6v26.2C558.4,462,559.2,465.9,560.6,469.9z M542.7,440.4c-21,0-31.4,4-31.4,12.1c0,2.4,1.1,4.5,3.2,6.2
			c2.1,1.7,5.3,2.6,9.6,2.6c6.2,0,10.8-1.6,14-4.7c3.2-3.2,4.7-6.7,4.7-10.8V440.4z"/>
		<path class="st0" d="M629,411.9l-28,66c-1.7,4.1-4,7.2-7,9.4c-3,2.2-7.1,3.4-12.6,3.4c-2.1,0-5.2-0.1-9.3-0.4v-10.4l7.8,0.1
			c3.4,0,5.9-0.5,7.6-1.3s2.9-2.5,3.9-4.8c0.9-2.3,1.4-3.6,1.4-4c0-0.2-0.5-1.4-1.5-3.6l-24.7-54.4h17l17.4,38.2l15-38.2H629z"/>
	</g>
</g>
<g id="window">
	<g>
		<rect x="251" y="144" class="st0" width="50" height="50"/>
	</g>
	<g>
		<rect x="190" y="204" class="st0" width="50" height="50"/>
	</g>
	<g>
		<rect x="251" y="204" class="st0" width="50" height="50"/>
	</g>
	<g>
		<rect x="190" y="144" class="st0" width="50" height="50"/>
	</g>
</g>
<g id="W">
	<g>
		<polygon class="st0" points="463,308 423,308 423,144 443,144 463,144 		"/>
	</g>
	<g>
		<path class="st0" d="M520,101c0,0-1-15,8-24s26-10,26-10h76v20v20h-58c0,0-4,0-8.3,4.3C560,115,560,119,560,119v175
			c0,0,0.5,13.5-11,25c-11,11-24.5,10.5-24.5,10.5H440v-19.7V290h68c0,0,5,0,8.6-3.6c3.9-3.9,3.4-8.4,3.4-8.4V101z"/>
	</g>
	<g>
		<path class="st0" d="M361,101c0,0,1-15-8-24s-26-10-26-10h-76l21,21l-21,19h58c0,0,4,0,8.3,4.3c3.8,3.8,3.8,7.8,3.8,7.8v175
			c0,0-0.5,13.5,11,25c11,11,24.5,10.5,24.5,10.5H441v-19.7V290h-68c0,0-5,0-8.6-3.6c-3.9-3.9-3.4-8.4-3.4-8.4V101z"/>
	</g>
</g>
</svg>
