<svg width="18" height="24" xmlns="http://www.w3.org/2000/svg">
<path d="M16.7363 5.31275V21.5552C16.7363 22.117 16.5127 22.6558 16.1148 23.0531C15.7168 23.4503 15.1771 23.6735 14.6143 23.6735H2.94348C2.3807 23.6735 1.84096 23.4503 1.44302 23.0531C1.04507 22.6558 0.821505 22.117 0.821505 21.5552V5.31275C0.821505 5.24253 0.84945 5.17518 0.899194 5.12552C0.948937 5.07586 1.0164 5.04796 1.08675 5.04796H16.4711C16.5414 5.04796 16.6089 5.07586 16.6586 5.12552C16.7084 5.17518 16.7363 5.24253 16.7363 5.31275ZM17.227 2.3762H12.0971C12.0351 2.37745 11.9746 2.35693 11.9261 2.31823C11.8776 2.27952 11.8443 2.22507 11.8319 2.16436L11.5666 0.885411C11.5542 0.824701 11.5209 0.770254 11.4724 0.731547C11.424 0.692841 11.3635 0.672328 11.3014 0.673577H6.23784C6.17579 0.672328 6.11526 0.692841 6.0668 0.731547C6.01833 0.770254 5.985 0.824701 5.9726 0.885411L5.70735 2.16436C5.69495 2.22507 5.66161 2.27952 5.61315 2.31823C5.56468 2.35693 5.50416 2.37745 5.4421 2.3762H0.330798C0.260451 2.3762 0.192984 2.4041 0.143241 2.45375C0.0934976 2.50341 0.0655518 2.57076 0.0655518 2.64099V3.98614C0.0655518 4.05637 0.0934976 4.12372 0.143241 4.17338C0.192984 4.22304 0.260451 4.25093 0.330798 4.25093H17.227C17.2974 4.25093 17.3648 4.22304 17.4146 4.17338C17.4643 4.12372 17.4923 4.05637 17.4923 3.98614V2.64099C17.4923 2.57076 17.4643 2.50341 17.4146 2.45375C17.3648 2.4041 17.2974 2.3762 17.227 2.3762Z" fill="white"/>
</svg>
