<svg width="23" height="23" fill="none" xmlns="http://www.w3.org/2000/svg"><path d="M10.08 20.16H2.24V2.24h7.84c.386 0 1.12 0 1.12-1.12S10.467 0 10.08 0H.7a.7.7 0 0 0-.7.7v21a.7.7 0 0 0 .7.7h9.38c.386 0 1.12 0 1.12-1.12s-.734-1.12-1.12-1.12z" fill="#000"/><path d="M22.4 10.64l-4.904-5.912c-.262-.331-.994-.33-1.256 0-.263.33-.263 1.101 0 1.432l3.36 3.92H5.953c-.371 0-.56.652-.56 1.12 0 .468.189 1.12.56 1.12H19.6l-3.36 3.92c-.263.331-.48 1.1-.216 1.431.263.332 1.074.332 1.336 0l5.04-5.91a.9.9 0 0 0 0-1.12z" fill="#000"/></svg>